<svg width="24" height="19" viewBox="0 0 24 19" fill="none" xmlns="http://www.w3.org/2000/svg">
<path d="M9.09961 18.4531H0.867188V12.5645C0.867188 10.1816 1.07227 8.30664 1.48242 6.93945C1.91211 5.55273 2.69336 4.3125 3.82617 3.21875C4.95898 2.125 6.4043 1.26562 8.16211 0.640625L9.77344 4.03906C8.13281 4.58594 6.95117 5.34766 6.22852 6.32422C5.52539 7.30078 5.1543 8.59961 5.11523 10.2207H9.09961V18.4531ZM22.8398 18.4531H14.6074V12.5645C14.6074 10.1621 14.8125 8.27734 15.2227 6.91016C15.6523 5.54297 16.4336 4.3125 17.5664 3.21875C18.7188 2.125 20.1641 1.26562 21.9023 0.640625L23.5137 4.03906C21.873 4.58594 20.6914 5.34766 19.9688 6.32422C19.2656 7.30078 18.8945 8.59961 18.8555 10.2207H22.8398V18.4531Z" fill="#F2F2F2"/>
</svg>
